# xmcd
#
# Track frame offsets:
#	150
#	20358
#	33514
#	49335
#	66226
#	83693
#	101767
#	127989
#	146130
#	159284
#	173636
#	192616
#	213023
#	226069
#	245491
#	268240
#	281793
#
# Disc length: 3950 seconds
# Revision: 0
# Processed by: cddbd v1.5.2PL0 Copyright (c) Steve Scherf et al.
# Submitted via: dBpowerAMP V12.0
#
DISCID=f20f6c11
DTITLE=Cyclone Susie - Cairns Blues Explosion - Live at Bernies
DYEAR=2016
DGENRE=Blues
TTITLE0=Baby Please Don't Go
TTITLE1=Mercury Blues
TTITLE2=Sweet Home Chicago
TTITLE3=Walking The Dog
TTITLE4=Steamroller Blues
TTITLE5=Gloria
TTITLE6=Stormy Monday
TTITLE7=Wonderful Tonight
TTITLE8=Cocaine
TTITLE9=Somebody
TTITLE10=Sunshine Of Your Love
TTITLE11=The Thrill Is Gone
TTITLE12=Born Under A Bad Sign
TTITLE13=Rock Me Baby
TTITLE14=Hoochie Coochie Man
TTITLE15=Crossroads
TTITLE16=Cyclone Suzie
EXTD=
EXTT0=
EXTT1=
EXTT2=
EXTT3=
EXTT4=
EXTT5=
EXTT6=
EXTT7=
EXTT8=
EXTT9=
EXTT10=
EXTT11=
EXTT12=
EXTT13=
EXTT14=
EXTT15=
EXTT16=
PLAYORDER=
